<svg xmlns="http://www.w3.org/2000/svg" width="12" height="12" viewBox="0 0 12 12">
  <path id="Icon_material-photo-filter" data-name="Icon material-photo-filter" d="M15.2,9.167v6H5.85V5.833h6V4.5H5.863A1.337,1.337,0,0,0,4.53,5.833v9.333A1.337,1.337,0,0,0,5.863,16.5H15.2a1.337,1.337,0,0,0,1.333-1.333v-6Zm-1.347,0,.627-1.373,1.373-.627L14.477,6.54,13.85,5.167,13.223,6.54l-1.373.627,1.373.627Zm-2.5.5-.833-1.833L9.683,9.667,7.85,10.5l1.833.833.833,1.833.833-1.833,1.833-.833Z" transform="translate(-4.53 -4.5)" fill="#707070"/>
</svg>
