<svg xmlns="http://www.w3.org/2000/svg" width="13.143" height="12" viewBox="0 0 13.143 12">
  <path id="Icon_material-add-a-photo" data-name="Icon material-add-a-photo" d="M1.714,3.214V1.5H2.857V3.214H4.571V4.357H2.857V6.071H1.714V4.357H0V3.214ZM3.429,6.643V4.929H5.143V3.214h4l1.046,1.143H12A1.146,1.146,0,0,1,13.143,5.5v6.857A1.146,1.146,0,0,1,12,13.5H2.857a1.146,1.146,0,0,1-1.143-1.143V6.643Zm4,5.143A2.857,2.857,0,1,0,4.571,8.929,2.858,2.858,0,0,0,7.429,11.786ZM5.6,8.929A1.829,1.829,0,1,0,7.429,7.1,1.827,1.827,0,0,0,5.6,8.929Z" transform="translate(0 -1.5)" fill="#707070"/>
</svg>
